<svg width="189" height="33" fill="none" xmlns="http://www.w3.org/2000/svg"><path d="M53.963 26.89v-8.71h-4.34v-2.16h10.889v2.18h-4.373v8.69h-2.176zm15.246-2.177h2.176v2.177h-8.713V16.02h8.713v2.18H64.86v2.157h4.356v2.18H64.86v2.176h4.356-.007zm6.533-6.533h-2.177v-2.16h2.177v2.16zm-2.177 8.71v-2.177h2.177v2.177h-2.177zm4.353-6.533h-2.176V18.18h2.176v2.177zm-2.176 4.356v-2.176h2.176v2.176h-2.176zm4.356-2.176h-2.18v-2.18h2.18v2.18zm0-2.18V18.18h2.177v2.177h-2.177zm2.177 4.356h-2.177v-2.176h2.177v2.176zm0-6.533v-2.16h2.18v2.18l-2.18-.02zm0 8.71v-2.177h2.18v2.177h-2.18zm13.061 0v-4.353h-6.525v4.353h-2.18V16.02h2.18v4.337h6.525V16.02h2.177v10.87h-2.177zm6.541-2.177H99.7V18.18h2.177v6.533zm6.536-6.533h-6.536v-2.16h6.536v2.16zm-2.18 6.533h2.18v2.177h-6.536v-2.177h4.356zm2.18 0V18.18h2.161v6.533h-2.161zm13.067-6.533h-8.713v-2.16h8.713v2.16zm0 4.357h-8.713v-2.18h8.713v2.18zm-2.177 2.176h2.177v2.177h-8.713v-2.177h6.536zm2.177-4.356V18.18h2.18v2.177h-2.18zm0 4.356v-2.176h2.18v2.176h-2.18zm13.069 2.177v-4.353h-6.537v4.353h-2.176v-8.71h2.176v2.177h6.537V18.18h2.176v8.71h-2.176zm0-8.71h-6.537v-2.16h6.537v2.16zm10.889 8.71h-6.533V16.02h8.709v2.18h2.181v2.157h-2.181V18.18h-6.532v2.177h6.532v2.18h2.181v2.176h-2.181v2.177h-2.176zm0-2.177h2.176v-2.176h-6.532v2.176h4.356zm6.553 2.177V16.02h8.713v2.18h2.177v2.157h-2.177V18.18h-6.552v2.177h6.533v2.18h-6.533v4.353h-2.161zm13.05 0V16.02h8.713v2.18h2.176v2.157h-2.176V18.18h-6.525v2.177h6.525v2.18h-6.525v4.353h-2.188zm13.069 0V16.02h8.71v2.18H189v2.157h-2.18V18.18h-6.533v2.177h6.533v2.18h-6.533v4.353h-2.177z" fill="#fff"/><path d="M0 19.513v2.438h6.717v1.223h3.668v1.242h2.161c.188 0 .254.055.246.246v.958h1.274v.96c0 .192.055.243.246.243h3.426v3.661h1.208v1.243h1.215v1.21h4.845v-3.156h-2.415v-2.946h3.42v4.903h1.445v1.2h4.884V29.78h-2.422v-4.165h1.203v-1.208h2.481v1.173h4.15v-2.396h4.884v-2.453h-2.947v-1.196h-1.242v-7.342H37.24v-3.18h3.731V7.31h-2.227V5.576h4.157v-4.36h-3.438V0h-3.454v1.172h-2.43v1.25h-1.227v9.768h-3.653v-1.172h-2.466v1.172h-3.65v1.224h-2.437v1.222h-1.22v1.22h-2.422v1.219h-1.266v1.223H3.068v1.23L0 19.513zM37.384 2.809h1.22v1.223h-1.22V2.81zm-1.352 19.17h1.7v1.199h-1.7v-1.2z" fill="#9EFF00"/></svg>